<?xml version="1.0" standalone="no"?><!DOCTYPE svg PUBLIC "-//W3C//DTD SVG 1.1//EN" "http://www.w3.org/Graphics/SVG/1.1/DTD/svg11.dtd"><svg t="1481785491630" class="icon" style="" viewBox="0 0 1024 1024" version="1.1" xmlns="http://www.w3.org/2000/svg" p-id="1860" xmlns:xlink="http://www.w3.org/1999/xlink" width="200" height="200"><defs><style type="text/css"></style></defs><path d="M1000.589241 845.612138C994.304 855.534345 983.816828 860.936828 973.082483 860.936828 967.009103 860.936828 960.794483 859.17131 955.321379 855.534345L824.143448 768.353103C784.878345 821.495172 722.838069 856.134621 652.923586 856.134621 534.528 856.134621 438.166069 757.300966 438.166069 635.86869 438.166069 514.436414 534.528 415.602759 652.923586 415.602759 771.319172 415.602759 867.681103 514.436414 867.681103 635.86869 867.681103 661.53931 863.19669 686.11531 855.287172 708.996414L990.949517 799.143724C1006.132966 809.171862 1010.511448 830.004966 1000.589241 845.612138ZM652.923586 482.798345C570.615172 482.798345 503.666759 551.441655 503.666759 635.86869 503.666759 720.295724 570.615172 788.939034 652.923586 788.939034 735.232 788.939034 802.251034 720.295724 802.180414 635.86869 802.180414 551.441655 735.232 482.798345 652.923586 482.798345ZM191.346759 610.904276C173.267862 610.904276 158.614069 595.862069 158.614069 577.324138 158.614069 558.786207 173.267862 543.744 191.417379 543.744L410.65931 543.744C402.961655 564.930207 397.841655 587.493517 395.687724 610.904276L191.346759 610.904276ZM158.649379 238.592C158.649379 220.054069 173.338483 205.011862 191.417379 205.011862L652.923586 205.011862C671.002483 205.011862 685.656276 220.054069 685.656276 238.592 685.656276 257.129931 671.073103 272.207448 652.994207 272.207448L191.417379 272.207448C173.338483 272.207448 158.649379 257.129931 158.649379 238.592ZM191.417379 441.555862C173.338483 441.555862 158.649379 426.513655 158.649379 407.975724 158.649379 389.402483 173.338483 374.360276 191.417379 374.360276L610.833655 374.360276C559.810207 383.01131 513.765517 406.987034 477.431172 441.555862L191.417379 441.555862ZM760.584828 128.847448C760.584828 94.843586 733.643034 67.230897 700.521931 67.230897L143.819034 67.230897C110.697931 67.230897 83.756138 94.843586 83.756138 128.847448L83.756138 895.081931C83.756138 929.121103 110.697931 956.769103 143.819034 956.769103L700.521931 956.769103C733.643034 956.769103 760.584828 929.085793 760.584828 895.081931L760.655448 895.081931 760.655448 876.755862C784.666483 865.385931 806.735448 850.414345 826.156138 832.47669L826.156138 895.152552C826.156138 966.232276 769.765517 1024 700.521931 1024L143.819034 1024C74.504828 1024 18.184828 966.161655 18.184828 895.152552L18.184828 128.847448C18.184828 57.767724 74.575448 0 143.819034 0L700.45131 0C769.765517 0 826.085517 57.838345 826.085517 128.847448L826.085517 439.296C806.664828 421.323034 784.631172 406.351448 760.584828 394.981517L760.584828 128.847448Z" p-id="1861" fill="#ffffff"></path></svg>